<?xml version="1.0" encoding="UTF-8"?>
<svg width="1900px" height="300px" viewBox="0 0 1040 158" version="1.1" xmlns="http://www.w3.org/2000/svg" xmlns:xlink="http://www.w3.org/1999/xlink">
    <title>Workload Driver Logo</title>
    <defs>
        <linearGradient id="gradient">
            <stop stop-color="#ffa500" offset="00%"></stop>
            <stop stop-color="#e00ccb" offset="15%"></stop>
            <stop stop-color="#e00ccb" offset="20%"></stop>
            <stop stop-color="#ffa500" offset="70%"></stop>
        </linearGradient>
    </defs>
    <path fill="url(#gradient)" d="M228.5 114.1 211.5 114.1 190 55.4 204 55.4 218.1 93.8 220.4 103.5 221.4 103.5 222.7 96.7 236 55.4 253 55.4 266.9 96.7 268.7 103.5 269.7 103.5 272 93.8 285.1 55.4 299.1 55.4 298.1 61.4 277.5 114.1 260.5 114.1 246.9 74.8 244.9 68.4 243.9 68.4 242 74.8 228.5 114.1ZM428.4 98.5 428.4 114.1 416.2 114.1 416.2 50.8 428.4 50.8 428.4 86.8 431.6 86.8A4.295 4.295 0 00434.444 85.728 5.773 5.773 0 00434.8 85.4 39.957 39.957 0 00435.27 84.92Q436.247 83.91 438.2 81.8A23778.161 23778.161 0 01440.687 79.115Q441.99 77.708 443.435 76.149A40982.006 40982.006 0 01443.85 75.7Q447 72.3 449.6 69.4L464.3 69.4 462.7 72.5Q460.4 74.9 457.7 77.55A696.508 696.508 0 01453.09 82.035 628.545 628.545 0 01452.45 82.65 177.805 177.805 0 01450.158 84.815Q449.071 85.823 448.081 86.702A105.239 105.239 0 01447.8 86.95Q445.7 88.8 444.6 89.4A30.674 30.674 0 01449.079 92.297 27.647 27.647 0 01450 93.05Q452.4 95.1 455.2 97.65 457.125 99.403 459.57 101.464A231.204 231.204 0 00461.9 103.4 21.471 21.471 0 00464.143 104.985Q465.334 105.709 466.461 106.134A9.497 9.497 0 00468.4 106.65 163.17 163.17 0 00469.441 106.803Q471.283 107.067 471.872 107.097A2.619 2.619 0 00472 107.1L470.2 114.1A19.035 19.035 0 01469.507 114.293Q468.669 114.51 467.5 114.75 465.8 115.1 464.1 115.1A29.476 29.476 0 01460.952 114.941Q459.421 114.777 458.103 114.441A15.585 15.585 0 01456.95 114.1Q454 113.1 450.7 109.8L449.1 108.2Q447.8 106.9 446.25 105.3 444.7 103.7 443.4 102.4L441.7 100.7Q439.2 98.2 436.95 96.8A8.938 8.938 0 00434.087 95.668Q432.921 95.417 431.58 95.401A15.355 15.355 0 00431.4 95.4 19.027 19.027 0 00430.638 95.414Q429.508 95.46 429.041 95.652A.735.735 0 00428.8 95.8.759.759 0 00428.644 96.066Q428.4 96.703 428.4 98.5ZM585.1 114.1 580.1 114.1Q572.5 114.1 569.1 110.55 565.781 107.084 565.702 101.092A22.272 22.272 0 01565.7 100.8 19.087 19.087 0 01566.082 96.858Q566.602 94.397 567.828 92.533A10.639 10.639 0 01569.25 90.8 10.983 10.983 0 01573.402 88.288Q575.12 87.686 577.232 87.451A25.946 25.946 0 01580.1 87.3L585.2 87.3A242.252 242.252 0 01592.114 87.394Q595.388 87.488 598.312 87.675A146.627 146.627 0 01598.7 87.7Q604.401 88.08 608.206 88.46A149.26 149.26 0 01608.6 88.5L608.6 81.9A8.808 8.808 0 00608.458 80.346 9.951 9.951 0 00608.4 80.05Q608.2 79.1 607.2 78.5A3.134 3.134 0 00606.483 78.197Q605.488 77.9 603.8 77.9L598.8 77.9Q588.163 77.9 580.955 78.233A208.338 208.338 0 00580.6 78.25 481.443 481.443 0 00577.436 78.411Q573.525 78.625 571.485 78.819A39.271 39.271 0 00570.7 78.9L569.6 71.3A.759.759 0 01570.046 70.687Q571.441 69.828 577.2 69.6A260.814 260.814 0 01581.638 69.469Q588.447 69.318 599.848 69.302A1971.535 1971.535 0 01602.6 69.3L607.6 69.3A28.789 28.789 0 01610.433 69.43Q613.423 69.727 615.3 70.7 618 72.1 619.15 74.2A12.322 12.322 0 01620.236 76.845 10.672 10.672 0 01620.55 78.45 45.123 45.123 0 01620.702 79.971Q620.762 80.697 620.785 81.329A21.01 21.01 0 01620.8 82.1L620.8 114.1 612.6 114.1 608.7 112.1A136.303 136.303 0 01605.311 112.618Q603.799 112.831 602.121 113.039A260.634 260.634 0 01598.6 113.45 100.804 100.804 0 01593.112 113.894Q590.309 114.049 587.204 114.087A169.469 169.469 0 01585.1 114.1ZM968.6 114.1 948.5 114.1Q943.738 114.1 941.062 112.921A8.585 8.585 0 01940.8 112.8 11.285 11.285 0 01938.993 111.727Q938 110.994 937.347 110.108A6.432 6.432 0 01936.95 109.5Q935.8 107.5 935.55 105.3 935.3 103.1 935.3 101.3L935.3 82.1Q935.3 81.069 935.418 79.73A46.545 46.545 0 01935.55 78.45 11.205 11.205 0 01936.49 75.121 13.391 13.391 0 01936.95 74.2 7.386 7.386 0 01938.655 72.14Q939.437 71.47 940.462 70.905A13.575 13.575 0 01940.85 70.7 10.937 10.937 0 01943.159 69.861Q944.279 69.58 945.614 69.44A27.722 27.722 0 01948.5 69.3L970 69.3Q976.241 69.3 979.934 70.418A15.702 15.702 0 01980.35 70.55 11.727 11.727 0 01982.761 71.649 7.955 7.955 0 01985.65 74.6 10.983 10.983 0 01986.654 77.189Q987.2 79.31 987.2 82.1L987.2 96.9 969.7 96.9Q961.649 96.9 956.279 96.58A110.569 110.569 0 01955.05 96.5Q949.4 96.1 947.5 96L947.5 101.5Q947.41 105.116 951.405 105.463A10.351 10.351 0 00952.3 105.5L957.4 105.5Q962.8 105.5 967.95 105.35 973.1 105.2 977.4 104.95 981.246 104.727 983.733 104.543A186.803 186.803 0 00984.3 104.5L988.3 111Q988.3 113.789 972.352 114.069A214.459 214.459 0 01968.6 114.1ZM768.7 114.1 723.3 114.1 723.3 63.3 722.3 55.3 768.7 55.3A53.07 53.07 0 01773.179 55.476Q777.66 55.857 780.598 57.061A14.245 14.245 0 01781.15 57.3 13.106 13.106 0 01784.499 59.468 10.797 10.797 0 01787.2 63.25Q788.601 66.506 788.847 71.086A37.524 37.524 0 01788.9 73.1L788.9 96.2Q788.9 100.785 787.936 104.173A17.659 17.659 0 01787.25 106.15 10.862 10.862 0 01782.666 111.355 14.527 14.527 0 01781.25 112.1Q777.14 113.99 769.592 114.094A64.663 64.663 0 01768.7 114.1ZM649.5 114.1 644.5 114.1Q639.738 114.1 637.062 112.921A8.585 8.585 0 01636.8 112.8 11.285 11.285 0 01634.993 111.727Q634 110.994 633.347 110.108A6.432 6.432 0 01632.95 109.5Q631.8 107.5 631.55 105.3 631.3 103.1 631.3 101.3L631.3 82.1Q631.3 81.069 631.418 79.73A46.545 46.545 0 01631.55 78.45 11.205 11.205 0 01632.49 75.121 13.391 13.391 0 01632.95 74.2 7.386 7.386 0 01634.655 72.14Q635.437 71.47 636.462 70.905A13.575 13.575 0 01636.85 70.7 10.937 10.937 0 01639.159 69.861Q640.279 69.58 641.614 69.44A27.722 27.722 0 01644.5 69.3L649.6 69.3Q657.83 69.3 663.219 69.58A124.104 124.104 0 01664.45 69.65Q669.107 69.939 671.963 70.261A57.04 57.04 0 01673.1 70.4L673.1 50.7 685.3 50.7 685.3 114.1 677.1 114.1 673.2 112.1A136.303 136.303 0 01669.811 112.618Q668.299 112.831 666.621 113.039A260.634 260.634 0 01663.1 113.45 100.524 100.524 0 01657.593 113.894Q654.772 114.049 651.63 114.087A173.581 173.581 0 01649.5 114.1ZM908.9 114.1 892.9 114.1 872.3 69.3 886.3 69.3 897.8 96.9 900.4 104.1 901.4 104.1 904 96.9 915.7 69.3 929.3 69.3 927.7 75.4 908.9 114.1ZM341.9 114.1 314.3 114.1Q307.6 114.1 304.35 111.4 301.7 109.199 301.211 104.736A19.624 19.624 0 01301.1 102.6L301.1 82.1Q301.1 81.069 301.218 79.73A46.545 46.545 0 01301.35 78.45 11.205 11.205 0 01302.29 75.121 13.391 13.391 0 01302.75 74.2 7.386 7.386 0 01304.455 72.14Q305.237 71.47 306.262 70.905A13.575 13.575 0 01306.65 70.7 10.937 10.937 0 01308.959 69.861Q310.079 69.58 311.414 69.44A27.722 27.722 0 01314.3 69.3L341.9 69.3A28.789 28.789 0 01344.733 69.43Q347.723 69.727 349.6 70.7 352.3 72.1 353.45 74.2A12.322 12.322 0 01354.536 76.845 10.672 10.672 0 01354.85 78.45 45.123 45.123 0 01355.002 79.971Q355.062 80.697 355.085 81.329A21.01 21.01 0 01355.1 82.1L355.1 101.3Q355.1 103.1 354.85 105.3A10.362 10.362 0 01353.409 109.485 11.854 11.854 0 01353.4 109.5 7.431 7.431 0 01351.67 111.453Q350.889 112.084 349.881 112.609A13.498 13.498 0 01349.5 112.8 10.896 10.896 0 01347.384 113.54Q345.187 114.083 342.102 114.1A36.435 36.435 0 01341.9 114.1ZM543 114.1 515.4 114.1Q508.7 114.1 505.45 111.4 502.8 109.199 502.311 104.736A19.624 19.624 0 01502.2 102.6L502.2 82.1Q502.2 81.069 502.318 79.73A46.545 46.545 0 01502.45 78.45 11.205 11.205 0 01503.39 75.121 13.391 13.391 0 01503.85 74.2 7.386 7.386 0 01505.555 72.14Q506.337 71.47 507.362 70.905A13.575 13.575 0 01507.75 70.7 10.937 10.937 0 01510.059 69.861Q511.179 69.58 512.514 69.44A27.722 27.722 0 01515.4 69.3L543 69.3A28.789 28.789 0 01545.833 69.43Q548.823 69.727 550.7 70.7 553.4 72.1 554.55 74.2A12.322 12.322 0 01555.636 76.845 10.672 10.672 0 01555.95 78.45 45.123 45.123 0 01556.102 79.971Q556.162 80.697 556.185 81.329A21.01 21.01 0 01556.2 82.1L556.2 101.3Q556.2 103.1 555.95 105.3A10.362 10.362 0 01554.509 109.485 11.854 11.854 0 01554.5 109.5 7.431 7.431 0 01552.77 111.453Q551.989 112.084 550.981 112.609A13.498 13.498 0 01550.6 112.8 10.896 10.896 0 01548.484 113.54Q546.287 114.083 543.202 114.1A36.435 36.435 0 01543 114.1ZM378.3 114.1 366.1 114.1 366.1 69.3 374.3 69.3 378.1 71.3Q380.7 69.9 383.7 69.1 385.88 68.519 388.904 68.36A45.729 45.729 0 01391.3 68.3 54.589 54.589 0 01395.994 68.489Q398.209 68.681 400.09 69.067A23.444 23.444 0 01403.15 69.9 142.363 142.363 0 01405.115 70.606Q408.052 71.688 409.2 72.3L405.7 81Q404.5 80.4 401.75 79.45A45.136 45.136 0 00399.162 78.648Q397.826 78.275 396.322 77.928A78.449 78.449 0 00395.3 77.7 35.11 35.11 0 00390.531 77.022 44.121 44.121 0 00387.2 76.9L386.1 76.9A18.826 18.826 0 00384.034 77.005Q380.96 77.345 379.85 78.8 378.4 80.7 378.3 85.1L378.3 114.1ZM813.1 114.1 800.9 114.1 800.9 69.3 809.1 69.3 812.9 71.3Q815.5 69.9 818.5 69.1 820.68 68.519 823.704 68.36A45.729 45.729 0 01826.1 68.3 54.589 54.589 0 01830.794 68.489Q833.009 68.681 834.89 69.067A23.444 23.444 0 01837.95 69.9 142.363 142.363 0 01839.915 70.606Q842.852 71.688 844 72.3L840.5 81Q839.3 80.4 836.55 79.45A45.136 45.136 0 00833.962 78.648Q832.626 78.275 831.122 77.928A78.449 78.449 0 00830.1 77.7 35.11 35.11 0 00825.331 77.022 44.121 44.121 0 00822 76.9L820.9 76.9A18.826 18.826 0 00818.834 77.005Q815.76 77.345 814.65 78.8 813.2 80.7 813.1 85.1L813.1 114.1ZM1010.5 114.1 998.3 114.1 998.3 69.3 1006.5 69.3 1010.3 71.3Q1012.9 69.9 1015.9 69.1 1018.08 68.519 1021.104 68.36A45.729 45.729 0 011023.5 68.3 54.589 54.589 0 011028.194 68.489Q1030.409 68.681 1032.29 69.067A23.444 23.444 0 011035.35 69.9 142.363 142.363 0 011037.315 70.606Q1040.252 71.688 1041.4 72.3L1037.9 81Q1036.7 80.4 1033.95 79.45A45.136 45.136 0 001031.362 78.648Q1030.026 78.275 1028.522 77.928A78.449 78.449 0 001027.5 77.7 35.11 35.11 0 001022.731 77.022 44.121 44.121 0 001019.4 76.9L1018.3 76.9A18.826 18.826 0 001016.234 77.005Q1013.16 77.345 1012.05 78.8 1010.6 80.7 1010.5 85.1L1010.5 114.1ZM491.2 114.1 479 114.1 479 58.7 478 50.7 491.2 50.7 491.2 114.1ZM736.5 64.9 736.5 104.5 767.9 104.5Q774.503 104.5 775.517 99.279A10.648 10.648 0 00775.7 97.4L775.7 71.9A8.232 8.232 0 00775.282 69.232 7.164 7.164 0 00774 66.95Q772.3 64.9 767.9 64.9L736.5 64.9ZM864.2 114.1 852 114.1 852 69.3 864.2 69.3 864.2 114.1ZM648.3 105.5 670 105.5A13.713 13.713 0 00670.815 105.478Q671.988 105.408 672.453 105.116A.839.839 0 00672.6 105Q673.1 104.5 673.1 102.5L673.1 78.6Q669.869 78.41 665.014 78.175A1446.518 1446.518 0 00664.5 78.15 215.995 215.995 0 00657.727 77.935 260.301 260.301 0 00653.4 77.9L648.3 77.9A8.416 8.416 0 00646.518 78.072Q643.946 78.631 643.566 81.017A5.613 5.613 0 00643.5 81.9L643.5 101.5Q643.5 105.212 647.632 105.479A10.332 10.332 0 00648.3 105.5ZM318.1 105.5 338.1 105.5A8.765 8.765 0 00339.919 105.329Q342.602 104.757 342.949 102.277A5.618 5.618 0 00343 101.5L343 81.9A4.61 4.61 0 00342.695 80.153Q341.777 77.9 338.1 77.9L318.1 77.9A8.416 8.416 0 00316.318 78.072Q313.746 78.631 313.366 81.017A5.613 5.613 0 00313.3 81.9L313.3 101.5Q313.3 105.212 317.432 105.479A10.332 10.332 0 00318.1 105.5ZM519.2 105.5 539.2 105.5A8.765 8.765 0 00541.019 105.329Q543.702 104.757 544.049 102.277A5.618 5.618 0 00544.1 101.5L544.1 81.9A4.61 4.61 0 00543.795 80.153Q542.877 77.9 539.2 77.9L519.2 77.9A8.416 8.416 0 00517.418 78.072Q514.846 78.631 514.466 81.017A5.613 5.613 0 00514.4 81.9L514.4 101.5Q514.4 105.212 518.532 105.479A10.332 10.332 0 00519.2 105.5ZM582.7 105.5 605.6 105.5A19.027 19.027 0 00606.362 105.486Q607.492 105.441 607.959 105.248A.735.735 0 00608.2 105.1.796.796 0 00608.364 104.822Q608.6 104.212 608.6 102.6L608.6 94.9 582.7 94.9A8.765 8.765 0 00581.384 94.992Q579.761 95.239 578.987 96.156A2.661 2.661 0 00578.95 96.2Q577.942 97.448 577.902 100.077A14.455 14.455 0 00577.9 100.3 10.295 10.295 0 00577.99 101.712Q578.21 103.301 578.974 104.166A2.954 2.954 0 00579.1 104.3Q580.094 105.294 581.91 105.465A8.441 8.441 0 00582.7 105.5ZM947.5 81.9 947.5 88.3 975 88.3 975 81.9Q975 79.9 974.55 79.1A1.24 1.24 0 00974.113 78.668Q973.459 78.257 972.028 78.112A12.483 12.483 0 00971.9 78.1Q969.7 77.9 964.4 77.9L952.3 77.9A8.416 8.416 0 00950.518 78.072Q947.946 78.631 947.566 81.017A5.613 5.613 0 00947.5 81.9ZM856.177 62.882A14.475 14.475 0 00858.1 63 18.051 18.051 0 00858.386 62.998Q861.965 62.941 863.6 61.45A4.516 4.516 0 00864.642 60.015Q864.994 59.266 865.158 58.311A10.738 10.738 0 00865.3 56.5Q865.3 52.9 863.6 51.45A4.211 4.211 0 00863.308 51.223Q862.101 50.364 860.021 50.109A15.801 15.801 0 00858.1 50 18.874 18.874 0 00857.629 50.006Q855.542 50.058 854.152 50.581A4.817 4.817 0 00852.65 51.45 3.595 3.595 0 00852.494 51.595Q851 53.074 851 56.5A11.706 11.706 0 00851.099 58.07Q851.409 60.361 852.7 61.5A4.258 4.258 0 00852.835 61.615Q854.044 62.595 856.177 62.882ZM140 120c-3.72.11-7.16 1.21-10.08 3.05l-22.12-21.55c4.34-5.47 7.08-12.39 7.4-19.93l15.7-1.57c2.25 5.56 7.6 9.41 13.85 9.41 8.23 0 14.9-6.67 14.9-14.9s-6.67-14.9-14.9-14.9c-7.49 0-13.68 5.52-14.74 12.71l-15.91 1.28c-2.24-11.36-9.73-20.6-19.78-25.21l3.08-8.39h2.6c10.99-.08 19.86-9 19.86-20 0-11.05-8.95-20-20-20s-20 8.95-20 20c0 7.42 4.04 13.9 10.04 17.35l-2.7 8.55c-2.27-.54-4.87-.84-7.54-.84-8.3 0-15.9 2.96-21.81 7.89l-29.94-30.04c1.41-2.24 2.25-4.97 2.25-7.9 0-8.28-6.72-15-15-15s-15 6.72-15 15c0 8.23 6.63 14.92 14.84 15 2.81-.01 5.44-.79 7.67-2.14l29.93 30.04c-4.74 5.88-7.6 13.44-7.6 21.68 0 .15 0 .3 0 .45 0 .58 0 1.08 0 1.58l-6.6 1.1c-3.13-7.2-10.19-12.14-18.39-12.14-11.05 0-20 8.95-20 20s8.95 20 20 20c11.05 0 20-8.95 20-20 0-.2 0-.39-.01-.59l6.3-.97c2.42 8.43 7.68 15.38 14.66 19.92l-5.56 11.88c-1.61-.49-3.47-.78-5.39-.8-.06 0-.12 0-.17 0-11.05 0-20 8.95-20 20s8.95 20 20 20c11.05 0 20-8.95 20-20 0-6.4-3.01-12.11-7.69-15.77l5.66-11.53c3.64 1.46 7.87 2.31 12.29 2.31 8.47 0 16.21-3.11 22.16-8.24l21.76 21.24c-2.5 3.3-4 7.48-4 12 0 11.05 8.95 20 20 20s20-8.95 20-20c0-11.05-8.95-20-20-20 0 0 0 0 0 0zM50 150c-5.52 0-10-4.48-10-10s4.48-10 10-10c5.52 0 10 4.48 10 10s-4.48 10-10 10zM80 105c-13.81 0-25-11.19-25-25s11.19-25 25-25c13.81 0 25 11.19 25 25s-11.19 25-25 25z"></path>
</svg>